<?xml version="1.0" encoding="UTF-8" standalone="no"?>
<svg
   width="512"
   height="512"
   viewBox="0 0 512 512"
   version="1.1"
   id="svg16"
   sodipodi:docname="Motor-pp.svg"
   inkscape:export-filename="Usage mode_Motor++_fond noir.png"
   inkscape:export-xdpi="96"
   inkscape:export-ydpi="96"
   inkscape:version="1.4 (86a8ad7, 2024-10-11)"
   xmlns:inkscape="http://www.inkscape.org/namespaces/inkscape"
   xmlns:sodipodi="http://sodipodi.sourceforge.net/DTD/sodipodi-0.dtd"
   xmlns="http://www.w3.org/2000/svg"
   xmlns:svg="http://www.w3.org/2000/svg"
   xmlns:rdf="http://www.w3.org/1999/02/22-rdf-syntax-ns#"
   xmlns:cc="http://creativecommons.org/ns#"
   xmlns:dc="http://purl.org/dc/elements/1.1/">
  <metadata
     id="metadata22">
    <rdf:RDF>
      <cc:Work
         rdf:about="">
        <dc:format>image/svg+xml</dc:format>
        <dc:type
           rdf:resource="http://purl.org/dc/dcmitype/StillImage" />
      </cc:Work>
    </rdf:RDF>
  </metadata>
  <defs
     id="defs20" />
  <sodipodi:namedview
     pagecolor="#ffffff"
     bordercolor="#666666"
     borderopacity="1"
     objecttolerance="10"
     gridtolerance="10"
     guidetolerance="10"
     inkscape:pageopacity="0"
     inkscape:pageshadow="2"
     inkscape:window-width="1920"
     inkscape:window-height="974"
     id="namedview18"
     showgrid="false"
     inkscape:zoom="0.921875"
     inkscape:cx="25.491525"
     inkscape:cy="268.47458"
     inkscape:window-x="2869"
     inkscape:window-y="139"
     inkscape:window-maximized="1"
     inkscape:current-layer="svg16"
     inkscape:showpageshadow="2"
     inkscape:pagecheckerboard="0"
     inkscape:deskcolor="#d1d1d1"
     inkscape:export-bgcolor="#00000000" />
  <g
     id="g14"
     transform="matrix(1.0601643,0,0,1.0601643,-14.678305,-14.127262)"
     style="fill:#ffffff;fill-opacity:1">
    <path
       d="m 283.6,352.94 v -63 a 3.14,3.14 0 0 0 -3.15,-3.14 h -48.91 a 3.14,3.14 0 0 0 -3.15,3.14 v 63 a 3.14,3.14 0 0 1 -3.14,3.14 h -27.37 a 3.15,3.15 0 0 0 -2.72,4.72 l 58.12,100.65 a 3.14,3.14 0 0 0 5.44,0 L 316.84,360.8 a 3.15,3.15 0 0 0 -2.72,-4.72 h -27.38 a 3.15,3.15 0 0 1 -3.14,-3.14 z"
       id="path4"
       style="fill:#ffffff;fill-opacity:1" />
    <path
       d="M 256,0 C 114.59,0 0,114.64 0,256 0,397.36 114.59,512 256,512 397.41,512 512,397.36 512,256 512,114.64 397.35,0 256,0 Z"
       id="path6"
       style="fill:#000000;fill-opacity:1;stroke-width:0.999591;stroke-dasharray:none"
       sodipodi:nodetypes="sssss" />
    <g
       id="g12"
       style="fill:#ffffff;fill-opacity:1">
      <path
         d="m 199.72,172.77 a 16.18,16.18 0 0 1 5.45,1 l 11.66,4.17 c -1.93,3.47 -5.48,6.59 -6.15,10.79 l -23.87,-8.92 a 16.72,16.72 0 0 1 12.91,-7 m 0,-11.81 a 28.5,28.5 0 0 0 -22.72,12.23 11.81,11.81 0 0 0 5.7,17.62 l 23.87,8.92 a 11.82,11.82 0 0 0 15.75,-8.91 24.92,24.92 0 0 1 1.7,-2.48 42.71,42.71 0 0 0 3.14,-4.71 11.82,11.82 0 0 0 -6.33,-16.87 l -11.67,-4.17 a 27.9,27.9 0 0 0 -9.42,-1.67 z"
         id="path8"
         style="fill:#ffffff;fill-opacity:1" />
      <path
         d="m 493.42,182.4 a 60.23,60.23 0 0 0 -1.07,-15.1 51,51 0 0 0 -3.71,-10.41 c -0.66,-1.41 -1.34,-2.81 -2,-4.21 a 69.29,69.29 0 0 1 -1.42,17.75 71.06,71.06 0 0 1 -18.83,35 C 449.81,222.42 289,255.34 289,255.34 a 70.78,70.78 0 0 1 -22.37,3.6 71.91,71.91 0 0 1 -24.7,-4.37 L 91.68,199.31 a 15.71,15.71 0 0 1 -9.83,-18.19 14.86,14.86 0 0 1 7.92,-9.76 13.91,13.91 0 0 1 7.07,-1.91 16.08,16.08 0 0 1 5.44,1 l 110.66,41 a 39.34,39.34 0 0 0 31.18,15.45 38.76,38.76 0 0 0 10.17,-1.36 l 149.58,-40.39 a 13.08,13.08 0 0 0 9.25,-15.8 c -0.6,-2 -1.47,-2.78 -2.57,-2.78 -2.61,0 -6.54,4.17 -11.32,5.57 l -154.5,34.15 a 9.21,9.21 0 0 1 -2.2,0.25 c -6.93,0 -16.74,-6.45 -18.76,-12.28 -2.33,-7.06 9.13,-16.94 16.19,-19.26 l 52.79,-17.54 a 85.84,85.84 0 0 0 32.52,-20.08 c 0,0 74.67,-52.1 101.47,-52.1 a 15.47,15.47 0 0 1 3.23,0.31 70,70 0 0 1 18.79,6.87 c -6.68,-6.89 -13.28,-13.86 -19.62,-21 a 60.34,60.34 0 0 1 -8.48,-3.42 c -10.48,1.43 -28.5,7.25 -63.72,28.09 -22.34,13.21 -41,26.22 -41.8,26.77 a 16.62,16.62 0 0 0 -2.29,1.9 68.42,68.42 0 0 1 -25.73,15.91 l -52.73,17.51 c -6.44,2.13 -13.5,6.79 -18.9,12.48 -3.68,3.89 -8.86,10.75 -9.68,19.26 l -97.38,-36 -0.18,-0.07 a 33.77,33.77 0 0 0 -11.41,-2 31.81,31.81 0 0 0 -15.31,3.94 32.71,32.71 0 0 0 -16.69,20.48 c -0.09,0.33 -0.18,0.67 -0.26,1 a 33.3,33.3 0 0 0 21,38.8 l 150.2,55.24 a 89.31,89.31 0 0 0 30.82,5.46 88.29,88.29 0 0 0 26.92,-4.17 c 6.48,-1.34 43.68,-9.11 82.13,-18.53 24.91,-6.11 45.54,-11.72 61.3,-16.68 29.23,-9.2 37.49,-14.82 42.07,-19.52 a 90,90 0 0 0 18.42,-27.65 8.91,8.91 0 0 1 -4.02,-7.86 z"
         id="path10"
         style="fill:#ffffff;fill-opacity:1" />
    </g>
  </g>
  <path
     d="m 256.79915,-29.355935 c -157.56917,0 -285.273728,127.880165 -285.273728,285.416915 0,157.53676 127.704558,285.4169 285.273728,285.4169 157.56914,0 285.27369,-127.76867 285.27369,-285.4169 0,-157.64826 -127.70455,-285.416914 -285.27369,-285.416915 z M 353.41332,484.95194 C 227.04598,538.35615 81.400374,479.15446 28.134417,352.72364 -25.131533,226.29287 33.929043,80.57418 160.29639,27.169994 190.71816,14.348531 223.5915,7.659072 256.79915,7.770561 c 137.06508,0 248.27725,111.267999 248.16583,248.401909 0,99.78444 -59.72918,189.86913 -151.55166,228.77947 z"
     id="path4-0"
     sodipodi:nodetypes="ssssscscccc"
     style="fill:#ffffff;fill-opacity:1;stroke:none;stroke-width:1.11463;stroke-opacity:1" />
  <path
     d="m 283.60655,367.63789 v -66.79035 a 3.3289159,3.3289159 0 0 0 -3.33952,-3.32891 h -51.85264 a 3.3289159,3.3289159 0 0 0 -3.33952,3.32891 v 66.79035 a 3.3289159,3.3289159 0 0 1 -3.32891,3.32893 h -29.01669 a 3.3395175,3.3395175 0 0 0 -2.88365,5.00397 l 61.61675,106.70552 a 3.3289159,3.3289159 0 0 0 5.76729,0 L 318.8464,375.97079 a 3.3395175,3.3395175 0 0 0 -2.88364,-5.00397 h -29.0273 a 3.3395175,3.3395175 0 0 1 -3.32891,-3.32893 z"
     id="path4-09"
     style="fill:#ffffff;fill-opacity:1;stroke-width:1.06016" />
</svg>
