<?xml version="1.0" encoding="UTF-8" standalone="no"?>
<svg
   id="Calque_1"
   data-name="Calque 1"
   viewBox="0 0 512 512"
   version="1.1"
   sodipodi:docname="Usage mode_Vocal+_fond noir.svg"
   inkscape:version="1.4 (86a8ad7, 2024-10-11)"
   inkscape:export-filename="Usage mode_Vocal+_fond noir.png"
   inkscape:export-xdpi="96"
   inkscape:export-ydpi="96"
   xmlns:inkscape="http://www.inkscape.org/namespaces/inkscape"
   xmlns:sodipodi="http://sodipodi.sourceforge.net/DTD/sodipodi-0.dtd"
   xmlns="http://www.w3.org/2000/svg"
   xmlns:svg="http://www.w3.org/2000/svg"
   xmlns:rdf="http://www.w3.org/1999/02/22-rdf-syntax-ns#"
   xmlns:cc="http://creativecommons.org/ns#"
   xmlns:dc="http://purl.org/dc/elements/1.1/">
  <metadata
     id="metadata11">
    <rdf:RDF>
      <cc:Work
         rdf:about="">
        <dc:format>image/svg+xml</dc:format>
        <dc:type
           rdf:resource="http://purl.org/dc/dcmitype/StillImage" />
        <dc:title>ic_profile_Vocal+</dc:title>
      </cc:Work>
    </rdf:RDF>
  </metadata>
  <defs
     id="defs9" />
  <sodipodi:namedview
     pagecolor="#ffffff"
     bordercolor="#666666"
     borderopacity="1"
     objecttolerance="10"
     gridtolerance="10"
     guidetolerance="10"
     inkscape:pageopacity="0"
     inkscape:pageshadow="2"
     inkscape:window-width="1920"
     inkscape:window-height="974"
     id="namedview7"
     showgrid="false"
     inkscape:zoom="0.65186406"
     inkscape:cx="-253.88729"
     inkscape:cy="526.95036"
     inkscape:window-x="2869"
     inkscape:window-y="139"
     inkscape:window-maximized="1"
     inkscape:current-layer="Calque_1"
     inkscape:showpageshadow="2"
     inkscape:pagecheckerboard="0"
     inkscape:deskcolor="#d1d1d1"
     inkscape:export-bgcolor="#00000000" />
  <title
     id="title2">ic_profile_Vocal+</title>
  <g
     id="Synthese_vocale"
     data-name="Synthese vocale"
     style="fill:#ffffff;fill-opacity:1">
    <path
       id="Fill-1"
       d="M280,417.6a179.81,179.81,0,0,1-64-9.6l-81.6,24,40-43.2c-52.86-34.35-88-92.95-88-160C86.4,124.7,172.72,40,280,40c105.68,0,192,84.7,192,188.8C472,333.67,385.68,418.37,280,417.6ZM35.2,232c-.75,64.81,26.6,123.08,70.4,164.8L0,510.4,216,456a197.76,197.76,0,0,0,57.6,6.4C405.1,463.13,512,359.81,512,232,512,104.92,405.1,1.6,273.6,1.6,141.36,1.6,34.45,104.92,35.2,232Z"
       style="fill:#ffffff;fill-opacity:1" />
  </g>
  <path
     style="opacity:1;fill:#ffffff;fill-opacity:1;fill-rule:nonzero;stroke:none;stroke-width:5;stroke-linecap:round;stroke-linejoin:round;stroke-miterlimit:4;stroke-dasharray:none;stroke-dashoffset:143.62203979;stroke-opacity:1;paint-order:stroke fill markers"
     d="M 280.73438 77.861328 A 151.87216 153.40622 0 0 0 128.86133 231.26758 A 151.87216 153.40622 0 0 0 280.73438 384.67188 A 151.87216 153.40622 0 0 0 432.60547 231.26758 A 151.87216 153.40622 0 0 0 280.73438 77.861328 z M 280.73242 209.29297 A 24.544998 24.792926 0 0 1 305.2793 234.08594 A 24.544998 24.792926 0 0 1 280.73242 258.87891 A 24.544998 24.792926 0 0 1 256.1875 234.08594 A 24.544998 24.792926 0 0 1 280.73242 209.29297 z "
     id="path4754" />
</svg>
